<svg id="visual" viewBox="0 0 960 540" width="960" height="540" xmlns="http://www.w3.org/2000/svg" xmlns:xlink="http://www.w3.org/1999/xlink" version="1.1"><rect x="0" y="0" width="960" height="540" fill="#ccddff"></rect><path d="M0 180L22.8 182.2C45.7 184.3 91.3 188.7 137 201.3C182.7 214 228.3 235 274 228C319.7 221 365.3 186 411.2 176.8C457 167.7 503 184.3 548.8 200.7C594.7 217 640.3 233 686 242.3C731.7 251.7 777.3 254.3 823 238.7C868.7 223 914.3 189 937.2 172L960 155L960 541L937.2 541C914.3 541 868.7 541 823 541C777.3 541 731.7 541 686 541C640.3 541 594.7 541 548.8 541C503 541 457 541 411.2 541C365.3 541 319.7 541 274 541C228.3 541 182.7 541 137 541C91.3 541 45.7 541 22.8 541L0 541Z" fill="#5298c7"></path><path d="M0 309L22.8 293.8C45.7 278.7 91.3 248.3 137 238.7C182.7 229 228.3 240 274 239.8C319.7 239.7 365.3 228.3 411.2 237C457 245.7 503 274.3 548.8 272.3C594.7 270.3 640.3 237.7 686 234.7C731.7 231.7 777.3 258.3 823 276.2C868.7 294 914.3 303 937.2 307.5L960 312L960 541L937.2 541C914.3 541 868.7 541 823 541C777.3 541 731.7 541 686 541C640.3 541 594.7 541 548.8 541C503 541 457 541 411.2 541C365.3 541 319.7 541 274 541C228.3 541 182.7 541 137 541C91.3 541 45.7 541 22.8 541L0 541Z" fill="#4483b3"></path><path d="M0 270L22.8 281.7C45.7 293.3 91.3 316.7 137 325C182.7 333.3 228.3 326.7 274 320.2C319.7 313.7 365.3 307.3 411.2 303C457 298.7 503 296.3 548.8 288C594.7 279.7 640.3 265.3 686 269.8C731.7 274.3 777.3 297.7 823 304.2C868.7 310.7 914.3 300.3 937.2 295.2L960 290L960 541L937.2 541C914.3 541 868.7 541 823 541C777.3 541 731.7 541 686 541C640.3 541 594.7 541 548.8 541C503 541 457 541 411.2 541C365.3 541 319.7 541 274 541C228.3 541 182.7 541 137 541C91.3 541 45.7 541 22.8 541L0 541Z" fill="#366e9e"></path><path d="M0 368L22.8 357.8C45.7 347.7 91.3 327.3 137 325.8C182.7 324.3 228.3 341.7 274 350.8C319.7 360 365.3 361 411.2 362.8C457 364.7 503 367.3 548.8 358.3C594.7 349.3 640.3 328.7 686 322.7C731.7 316.7 777.3 325.3 823 333.5C868.7 341.7 914.3 349.3 937.2 353.2L960 357L960 541L937.2 541C914.3 541 868.7 541 823 541C777.3 541 731.7 541 686 541C640.3 541 594.7 541 548.8 541C503 541 457 541 411.2 541C365.3 541 319.7 541 274 541C228.3 541 182.7 541 137 541C91.3 541 45.7 541 22.8 541L0 541Z" fill="#285a8a"></path><path d="M0 368L22.8 374.5C45.7 381 91.3 394 137 398C182.7 402 228.3 397 274 393.7C319.7 390.3 365.3 388.7 411.2 395.7C457 402.7 503 418.3 548.8 422.8C594.7 427.3 640.3 420.7 686 419.8C731.7 419 777.3 424 823 429.2C868.7 434.3 914.3 439.7 937.2 442.3L960 445L960 541L937.2 541C914.3 541 868.7 541 823 541C777.3 541 731.7 541 686 541C640.3 541 594.7 541 548.8 541C503 541 457 541 411.2 541C365.3 541 319.7 541 274 541C228.3 541 182.7 541 137 541C91.3 541 45.7 541 22.8 541L0 541Z" fill="#1b4776"></path><path d="M0 493L22.8 492.3C45.7 491.7 91.3 490.3 137 488.5C182.7 486.7 228.3 484.3 274 485C319.7 485.7 365.3 489.3 411.2 488C457 486.7 503 480.3 548.8 471.2C594.7 462 640.3 450 686 444C731.7 438 777.3 438 823 439.5C868.7 441 914.3 444 937.2 445.5L960 447L960 541L937.2 541C914.3 541 868.7 541 823 541C777.3 541 731.7 541 686 541C640.3 541 594.7 541 548.8 541C503 541 457 541 411.2 541C365.3 541 319.7 541 274 541C228.3 541 182.7 541 137 541C91.3 541 45.7 541 22.8 541L0 541Z" fill="#0e3462"></path></svg>